<mxfile host="65bd71144e">
    <diagram id="0VjxC995rQxLLiio9GA1" name="Page-1">
        <mxGraphModel dx="1551" dy="620" grid="1" gridSize="10" guides="1" tooltips="1" connect="1" arrows="1" fold="1" page="1" pageScale="1" pageWidth="827" pageHeight="1169" math="0" shadow="0">
            <root>
                <mxCell id="0"/>
                <mxCell id="1" parent="0"/>
                <mxCell id="a-vLMONKRcKrZ4XkvWiE-9" value="" style="edgeStyle=orthogonalEdgeStyle;rounded=0;orthogonalLoop=1;jettySize=auto;html=1;" parent="1" target="a-vLMONKRcKrZ4XkvWiE-8" edge="1">
                    <mxGeometry relative="1" as="geometry">
                        <mxPoint x="50" y="325" as="sourcePoint"/>
                    </mxGeometry>
                </mxCell>
                <mxCell id="a-vLMONKRcKrZ4XkvWiE-11" value="" style="edgeStyle=orthogonalEdgeStyle;rounded=0;orthogonalLoop=1;jettySize=auto;html=1;" parent="1" source="a-vLMONKRcKrZ4XkvWiE-8" edge="1">
                    <mxGeometry relative="1" as="geometry">
                        <mxPoint x="50" y="325" as="targetPoint"/>
                    </mxGeometry>
                </mxCell>
                <mxCell id="a-vLMONKRcKrZ4XkvWiE-40" value="" style="group" parent="1" vertex="1" connectable="0">
                    <mxGeometry x="50" y="230" width="100" height="190" as="geometry"/>
                </mxCell>
                <mxCell id="a-vLMONKRcKrZ4XkvWiE-32" value="" style="rounded=0;whiteSpace=wrap;html=1;" parent="a-vLMONKRcKrZ4XkvWiE-40" vertex="1">
                    <mxGeometry width="100" height="190" as="geometry"/>
                </mxCell>
                <mxCell id="a-vLMONKRcKrZ4XkvWiE-34" value="时间戳100" style="rounded=1;whiteSpace=wrap;html=1;" parent="a-vLMONKRcKrZ4XkvWiE-40" vertex="1">
                    <mxGeometry x="5" y="140" width="90" height="40" as="geometry"/>
                </mxCell>
                <mxCell id="a-vLMONKRcKrZ4XkvWiE-36" style="edgeStyle=orthogonalEdgeStyle;rounded=0;orthogonalLoop=1;jettySize=auto;html=1;" parent="a-vLMONKRcKrZ4XkvWiE-40" source="a-vLMONKRcKrZ4XkvWiE-37" target="a-vLMONKRcKrZ4XkvWiE-34" edge="1">
                    <mxGeometry relative="1" as="geometry"/>
                </mxCell>
                <mxCell id="a-vLMONKRcKrZ4XkvWiE-37" value="时间戳2" style="rounded=1;whiteSpace=wrap;html=1;" parent="a-vLMONKRcKrZ4XkvWiE-40" vertex="1">
                    <mxGeometry x="5" y="75" width="90" height="40" as="geometry"/>
                </mxCell>
                <mxCell id="a-vLMONKRcKrZ4XkvWiE-33" value="" style="edgeStyle=orthogonalEdgeStyle;rounded=0;orthogonalLoop=1;jettySize=auto;html=1;" parent="a-vLMONKRcKrZ4XkvWiE-40" source="a-vLMONKRcKrZ4XkvWiE-34" target="a-vLMONKRcKrZ4XkvWiE-37" edge="1">
                    <mxGeometry relative="1" as="geometry">
                        <Array as="points">
                            <mxPoint x="40" y="160"/>
                            <mxPoint x="40" y="160"/>
                        </Array>
                    </mxGeometry>
                </mxCell>
                <mxCell id="a-vLMONKRcKrZ4XkvWiE-38" style="edgeStyle=orthogonalEdgeStyle;rounded=0;orthogonalLoop=1;jettySize=auto;html=1;entryX=0.5;entryY=0;entryDx=0;entryDy=0;" parent="a-vLMONKRcKrZ4XkvWiE-40" source="a-vLMONKRcKrZ4XkvWiE-39" target="a-vLMONKRcKrZ4XkvWiE-37" edge="1">
                    <mxGeometry relative="1" as="geometry"/>
                </mxCell>
                <mxCell id="a-vLMONKRcKrZ4XkvWiE-39" value="时间戳0" style="rounded=1;whiteSpace=wrap;html=1;" parent="a-vLMONKRcKrZ4XkvWiE-40" vertex="1">
                    <mxGeometry x="5" y="10" width="90" height="40" as="geometry"/>
                </mxCell>
                <mxCell id="a-vLMONKRcKrZ4XkvWiE-35" value="" style="edgeStyle=orthogonalEdgeStyle;rounded=0;orthogonalLoop=1;jettySize=auto;html=1;" parent="a-vLMONKRcKrZ4XkvWiE-40" source="a-vLMONKRcKrZ4XkvWiE-37" target="a-vLMONKRcKrZ4XkvWiE-39" edge="1">
                    <mxGeometry relative="1" as="geometry"/>
                </mxCell>
                <mxCell id="a-vLMONKRcKrZ4XkvWiE-41" value="" style="group" parent="1" vertex="1" connectable="0">
                    <mxGeometry x="210" y="230" width="100" height="190" as="geometry"/>
                </mxCell>
                <mxCell id="a-vLMONKRcKrZ4XkvWiE-42" value="" style="rounded=0;whiteSpace=wrap;html=1;" parent="a-vLMONKRcKrZ4XkvWiE-41" vertex="1">
                    <mxGeometry width="100" height="190" as="geometry"/>
                </mxCell>
                <mxCell id="a-vLMONKRcKrZ4XkvWiE-43" value="时间戳201" style="rounded=1;whiteSpace=wrap;html=1;" parent="a-vLMONKRcKrZ4XkvWiE-41" vertex="1">
                    <mxGeometry x="5" y="140" width="90" height="40" as="geometry"/>
                </mxCell>
                <mxCell id="a-vLMONKRcKrZ4XkvWiE-44" style="edgeStyle=orthogonalEdgeStyle;rounded=0;orthogonalLoop=1;jettySize=auto;html=1;" parent="a-vLMONKRcKrZ4XkvWiE-41" source="a-vLMONKRcKrZ4XkvWiE-45" target="a-vLMONKRcKrZ4XkvWiE-43" edge="1">
                    <mxGeometry relative="1" as="geometry"/>
                </mxCell>
                <mxCell id="a-vLMONKRcKrZ4XkvWiE-45" value="时间戳100" style="rounded=1;whiteSpace=wrap;html=1;" parent="a-vLMONKRcKrZ4XkvWiE-41" vertex="1">
                    <mxGeometry x="5" y="75" width="90" height="40" as="geometry"/>
                </mxCell>
                <mxCell id="a-vLMONKRcKrZ4XkvWiE-46" value="" style="edgeStyle=orthogonalEdgeStyle;rounded=0;orthogonalLoop=1;jettySize=auto;html=1;" parent="a-vLMONKRcKrZ4XkvWiE-41" source="a-vLMONKRcKrZ4XkvWiE-43" target="a-vLMONKRcKrZ4XkvWiE-45" edge="1">
                    <mxGeometry relative="1" as="geometry">
                        <Array as="points">
                            <mxPoint x="40" y="160"/>
                            <mxPoint x="40" y="160"/>
                        </Array>
                    </mxGeometry>
                </mxCell>
                <mxCell id="a-vLMONKRcKrZ4XkvWiE-47" style="edgeStyle=orthogonalEdgeStyle;rounded=0;orthogonalLoop=1;jettySize=auto;html=1;entryX=0.5;entryY=0;entryDx=0;entryDy=0;" parent="a-vLMONKRcKrZ4XkvWiE-41" source="a-vLMONKRcKrZ4XkvWiE-48" target="a-vLMONKRcKrZ4XkvWiE-45" edge="1">
                    <mxGeometry relative="1" as="geometry"/>
                </mxCell>
                <mxCell id="a-vLMONKRcKrZ4XkvWiE-48" value="时间戳-100" style="rounded=1;whiteSpace=wrap;html=1;" parent="a-vLMONKRcKrZ4XkvWiE-41" vertex="1">
                    <mxGeometry x="5" y="10" width="90" height="40" as="geometry"/>
                </mxCell>
                <mxCell id="a-vLMONKRcKrZ4XkvWiE-49" value="" style="edgeStyle=orthogonalEdgeStyle;rounded=0;orthogonalLoop=1;jettySize=auto;html=1;" parent="a-vLMONKRcKrZ4XkvWiE-41" source="a-vLMONKRcKrZ4XkvWiE-45" target="a-vLMONKRcKrZ4XkvWiE-48" edge="1">
                    <mxGeometry relative="1" as="geometry"/>
                </mxCell>
                <mxCell id="a-vLMONKRcKrZ4XkvWiE-51" value="" style="group" parent="1" vertex="1" connectable="0">
                    <mxGeometry x="-120" y="230" width="100" height="190" as="geometry"/>
                </mxCell>
                <mxCell id="a-vLMONKRcKrZ4XkvWiE-8" value="" style="rounded=0;whiteSpace=wrap;html=1;" parent="a-vLMONKRcKrZ4XkvWiE-51" vertex="1">
                    <mxGeometry width="100" height="190" as="geometry"/>
                </mxCell>
                <mxCell id="a-vLMONKRcKrZ4XkvWiE-12" value="时间戳4" style="rounded=1;whiteSpace=wrap;html=1;" parent="a-vLMONKRcKrZ4XkvWiE-51" vertex="1">
                    <mxGeometry x="5" y="140" width="90" height="40" as="geometry"/>
                </mxCell>
                <mxCell id="a-vLMONKRcKrZ4XkvWiE-22" style="edgeStyle=orthogonalEdgeStyle;rounded=0;orthogonalLoop=1;jettySize=auto;html=1;" parent="a-vLMONKRcKrZ4XkvWiE-51" source="a-vLMONKRcKrZ4XkvWiE-13" target="a-vLMONKRcKrZ4XkvWiE-12" edge="1">
                    <mxGeometry relative="1" as="geometry"/>
                </mxCell>
                <mxCell id="a-vLMONKRcKrZ4XkvWiE-13" value="时间戳3" style="rounded=1;whiteSpace=wrap;html=1;" parent="a-vLMONKRcKrZ4XkvWiE-51" vertex="1">
                    <mxGeometry x="5" y="75" width="90" height="40" as="geometry"/>
                </mxCell>
                <mxCell id="a-vLMONKRcKrZ4XkvWiE-14" value="" style="edgeStyle=orthogonalEdgeStyle;rounded=0;orthogonalLoop=1;jettySize=auto;html=1;" parent="a-vLMONKRcKrZ4XkvWiE-51" source="a-vLMONKRcKrZ4XkvWiE-12" target="a-vLMONKRcKrZ4XkvWiE-13" edge="1">
                    <mxGeometry relative="1" as="geometry">
                        <Array as="points">
                            <mxPoint x="40" y="160"/>
                            <mxPoint x="40" y="160"/>
                        </Array>
                    </mxGeometry>
                </mxCell>
                <mxCell id="a-vLMONKRcKrZ4XkvWiE-23" style="edgeStyle=orthogonalEdgeStyle;rounded=0;orthogonalLoop=1;jettySize=auto;html=1;entryX=0.5;entryY=0;entryDx=0;entryDy=0;" parent="a-vLMONKRcKrZ4XkvWiE-51" source="a-vLMONKRcKrZ4XkvWiE-17" target="a-vLMONKRcKrZ4XkvWiE-13" edge="1">
                    <mxGeometry relative="1" as="geometry"/>
                </mxCell>
                <mxCell id="a-vLMONKRcKrZ4XkvWiE-17" value="时间戳1" style="rounded=1;whiteSpace=wrap;html=1;" parent="a-vLMONKRcKrZ4XkvWiE-51" vertex="1">
                    <mxGeometry x="5" y="10" width="90" height="40" as="geometry"/>
                </mxCell>
                <mxCell id="a-vLMONKRcKrZ4XkvWiE-18" value="" style="edgeStyle=orthogonalEdgeStyle;rounded=0;orthogonalLoop=1;jettySize=auto;html=1;" parent="a-vLMONKRcKrZ4XkvWiE-51" source="a-vLMONKRcKrZ4XkvWiE-13" target="a-vLMONKRcKrZ4XkvWiE-17" edge="1">
                    <mxGeometry relative="1" as="geometry"/>
                </mxCell>
                <mxCell id="a-vLMONKRcKrZ4XkvWiE-55" style="edgeStyle=orthogonalEdgeStyle;rounded=0;orthogonalLoop=1;jettySize=auto;html=1;entryX=1;entryY=0.5;entryDx=0;entryDy=0;" parent="1" source="a-vLMONKRcKrZ4XkvWiE-42" target="a-vLMONKRcKrZ4XkvWiE-32" edge="1">
                    <mxGeometry relative="1" as="geometry"/>
                </mxCell>
                <mxCell id="a-vLMONKRcKrZ4XkvWiE-56" style="edgeStyle=orthogonalEdgeStyle;rounded=0;orthogonalLoop=1;jettySize=auto;html=1;entryX=0;entryY=0.5;entryDx=0;entryDy=0;" parent="1" source="a-vLMONKRcKrZ4XkvWiE-32" target="a-vLMONKRcKrZ4XkvWiE-42" edge="1">
                    <mxGeometry relative="1" as="geometry"/>
                </mxCell>
                <mxCell id="a-vLMONKRcKrZ4XkvWiE-57" value="1频次" style="text;html=1;resizable=0;autosize=1;align=center;verticalAlign=middle;points=[];fillColor=none;strokeColor=none;rounded=0;fontSize=19;" parent="1" vertex="1">
                    <mxGeometry x="-105" y="440" width="70" height="40" as="geometry"/>
                </mxCell>
                <mxCell id="a-vLMONKRcKrZ4XkvWiE-58" value="2频次" style="text;html=1;resizable=0;autosize=1;align=center;verticalAlign=middle;points=[];fillColor=none;strokeColor=none;rounded=0;fontSize=19;" parent="1" vertex="1">
                    <mxGeometry x="65" y="440" width="70" height="40" as="geometry"/>
                </mxCell>
                <mxCell id="a-vLMONKRcKrZ4XkvWiE-59" value="3频次" style="text;html=1;resizable=0;autosize=1;align=center;verticalAlign=middle;points=[];fillColor=none;strokeColor=none;rounded=0;fontSize=19;" parent="1" vertex="1">
                    <mxGeometry x="225" y="440" width="70" height="40" as="geometry"/>
                </mxCell>
                <mxCell id="a-vLMONKRcKrZ4XkvWiE-65" style="edgeStyle=orthogonalEdgeStyle;rounded=0;orthogonalLoop=1;jettySize=auto;html=1;dashed=1;fontSize=19;" parent="1" source="a-vLMONKRcKrZ4XkvWiE-62" target="a-vLMONKRcKrZ4XkvWiE-17" edge="1">
                    <mxGeometry relative="1" as="geometry"/>
                </mxCell>
                <mxCell id="a-vLMONKRcKrZ4XkvWiE-62" value="head" style="ellipse;shape=cloud;whiteSpace=wrap;html=1;fontSize=19;" parent="1" vertex="1">
                    <mxGeometry x="-262" y="230" width="80" height="60" as="geometry"/>
                </mxCell>
                <mxCell id="a-vLMONKRcKrZ4XkvWiE-64" style="edgeStyle=orthogonalEdgeStyle;rounded=0;orthogonalLoop=1;jettySize=auto;html=1;exitX=0.875;exitY=0.5;exitDx=0;exitDy=0;exitPerimeter=0;fontSize=19;dashed=1;" parent="1" source="a-vLMONKRcKrZ4XkvWiE-63" target="a-vLMONKRcKrZ4XkvWiE-12" edge="1">
                    <mxGeometry relative="1" as="geometry"/>
                </mxCell>
                <mxCell id="a-vLMONKRcKrZ4XkvWiE-63" value="tail" style="ellipse;shape=cloud;whiteSpace=wrap;html=1;fontSize=19;" parent="1" vertex="1">
                    <mxGeometry x="-262" y="360" width="80" height="60" as="geometry"/>
                </mxCell>
                <mxCell id="a-vLMONKRcKrZ4XkvWiE-68" style="edgeStyle=orthogonalEdgeStyle;rounded=0;orthogonalLoop=1;jettySize=auto;html=1;dashed=1;fontSize=19;" parent="1" source="a-vLMONKRcKrZ4XkvWiE-66" target="a-vLMONKRcKrZ4XkvWiE-8" edge="1">
                    <mxGeometry relative="1" as="geometry"/>
                </mxCell>
                <mxCell id="a-vLMONKRcKrZ4XkvWiE-66" value="head" style="ellipse;shape=cloud;whiteSpace=wrap;html=1;fontSize=19;fillColor=#e1d5e7;strokeColor=#9673a6;" parent="1" vertex="1">
                    <mxGeometry x="-130" y="90" width="120" height="80" as="geometry"/>
                </mxCell>
                <mxCell id="a-vLMONKRcKrZ4XkvWiE-69" style="edgeStyle=orthogonalEdgeStyle;rounded=0;orthogonalLoop=1;jettySize=auto;html=1;entryX=0.5;entryY=0;entryDx=0;entryDy=0;dashed=1;fontSize=19;" parent="1" source="a-vLMONKRcKrZ4XkvWiE-67" target="a-vLMONKRcKrZ4XkvWiE-42" edge="1">
                    <mxGeometry relative="1" as="geometry"/>
                </mxCell>
                <mxCell id="a-vLMONKRcKrZ4XkvWiE-67" value="tail" style="ellipse;shape=cloud;whiteSpace=wrap;html=1;fontSize=19;fillColor=#e1d5e7;strokeColor=#9673a6;" parent="1" vertex="1">
                    <mxGeometry x="200" y="90" width="120" height="80" as="geometry"/>
                </mxCell>
            </root>
        </mxGraphModel>
    </diagram>
</mxfile>